<?xml version="1.0" standalone="no"?>
<!DOCTYPE svg PUBLIC "-//W3C//DTD SVG 20010904//EN"
 "http://www.w3.org/TR/2001/REC-SVG-20010904/DTD/svg10.dtd">
<svg version="1.0" xmlns="http://www.w3.org/2000/svg"
 width="512.000000pt" height="512.000000pt" viewBox="0 0 512.000000 512.000000"
 preserveAspectRatio="xMidYMid meet">
<metadata>
Created by potrace 1.14, written by Peter Selinger 2001-2017
</metadata>
<g transform="translate(0.000000,512.000000) scale(0.100000,-0.100000)"
fill="#000000" stroke="none">
<path d="M780 4543 c-84 -29 -151 -89 -193 -173 l-22 -45 0 -1765 0 -1765 25
-49 c44 -86 117 -148 205 -174 30 -9 457 -11 1785 -9 l1745 2 50 25 c75 37
140 110 164 183 21 61 21 66 19 1807 l-3 1745 -24 47 c-43 87 -111 145 -200
172 -49 14 -221 16 -1780 16 -1541 -1 -1731 -3 -1771 -17z m3546 -169 c15 -11
37 -33 48 -48 l21 -27 0 -1738 0 -1738 -29 -37 c-54 -71 87 -67 -1819 -64
l-1724 3 -37 29 c-71 54 -66 -83 -66 1798 0 1078 4 1716 10 1737 12 41 45 79
85 97 25 11 332 13 1757 11 1727 -2 1727 -2 1754 -23z"/>
<path d="M3440 4009 c-118 -39 -222 -72 -230 -74 -16 -4 -83 -25 -400 -125
-107 -34 -235 -75 -285 -90 -844 -264 -1078 -341 -1102 -360 -63 -49 -62 -47
-62 -465 l0 -381 24 -41 c30 -50 60 -65 235 -116 74 -21 162 -47 195 -57 33
-10 110 -33 170 -50 61 -18 112 -34 113 -35 2 -2 -25 -13 -60 -23 -34 -11
-180 -57 -323 -102 -143 -44 -275 -86 -293 -91 -62 -20 -62 -23 -62 -481 0
-308 3 -419 13 -437 19 -37 61 -47 121 -28 58 19 382 120 626 197 91 28 188
59 215 68 28 9 52 17 55 17 3 0 21 6 40 12 85 27 287 91 740 233 267 84 500
161 519 173 19 11 41 37 52 61 17 38 19 72 19 409 0 288 -3 375 -14 400 -29
70 -48 79 -343 166 -153 45 -303 90 -333 100 l-55 18 120 37 c66 21 167 53
225 71 58 18 161 51 228 72 70 21 134 48 148 60 l24 22 0 421 c0 454 -2 470
-52 484 -36 9 -41 8 -268 -65z m158 -435 l-3 -317 -235 -74 c-129 -41 -262
-83 -295 -93 -368 -111 -407 -129 -407 -184 0 -58 18 -68 228 -131 110 -32
231 -68 269 -80 39 -11 154 -46 257 -76 l188 -54 0 -314 c0 -246 -3 -312 -12
-309 -14 5 -31 10 -328 98 -113 34 -241 72 -285 85 -44 13 -129 38 -190 56
-60 17 -119 35 -130 39 -11 4 -148 45 -305 91 -157 45 -337 98 -400 117 -63
19 -186 54 -272 79 l-158 46 0 341 0 341 68 22 c60 19 133 42 492 155 52 16
113 36 135 43 22 7 112 36 200 63 357 112 465 146 810 256 198 63 363 115 368
115 4 1 6 -141 5 -315z"/>
</g>
</svg>
